HIERARCHY
ROOT hip
{
  OFFSET 0 0 0
  CHANNELS 6 Xposition Yposition Zposition Zrotation Yrotation Xrotation
  JOINT abdomen
  {
    OFFSET 0 20.6881 -0.73152
    CHANNELS 3 Zrotation Xrotation Yrotation
    JOINT chest
    {
      OFFSET 0 11.7043 -0.48768
      CHANNELS 3 Zrotation Xrotation Yrotation
      JOINT neck
      {
        OFFSET 0 22.1894 -2.19456
        CHANNELS 3 Zrotation Xrotation Yrotation
        JOINT head
        {
          OFFSET -0.24384 7.07133 1.2192
          CHANNELS 3 Zrotation Xrotation Yrotation
          JOINT leftEye
          {
            OFFSET 4.14528 8.04674 8.04672
            CHANNELS 3 Zrotation Xrotation Yrotation
            End Site
            {
              OFFSET 1 0 0
            }
          }
          JOINT rightEye
          {
            OFFSET -3.6576 8.04674 8.04672
            CHANNELS 3 Zrotation Xrotation Yrotation
            End Site
            {
              OFFSET 1 0 0
            }
          }
        }
      }
      JOINT rCollar
      {
        OFFSET -2.68224 19.2634 -4.8768
        CHANNELS 3 Zrotation Xrotation Yrotation
        JOINT rShldr
        {
          OFFSET -8.77824 -1.95073 1.46304
          CHANNELS 3 Zrotation Xrotation Yrotation
          JOINT rForeArm
          {
            OFFSET -28.1742 -1.7115 0.48768
            CHANNELS 3 Zrotation Xrotation Yrotation
            JOINT rHand
            {
              OFFSET -22.5879 0.773209 7.07136
              CHANNELS 3 Zrotation Xrotation Yrotation
              JOINT rThumb1
              {
                OFFSET -1.2192 -0.487915 3.41376
                CHANNELS 3 Zrotation Xrotation Yrotation
                JOINT rThumb2
                {
                  OFFSET -3.37035 -0.52449 3.41376
                  CHANNELS 3 Zrotation Xrotation Yrotation
                  End Site
                  {
                    OFFSET -1.78271 -1.18214 1.43049
                  }
                }
              }
              JOINT rIndex1
              {
                OFFSET -7.75947 0.938293 5.60832
                CHANNELS 3 Zrotation Xrotation Yrotation
                JOINT rIndex2
                {
                  OFFSET -2.54057 -0.884171 1.56538
                  CHANNELS 3 Zrotation Xrotation Yrotation
                  End Site
                  {
                    OFFSET -1.62519 -0.234802 1.16502
                  }
                }
              }
              JOINT rMid1
              {
                OFFSET -8.24714 1.18213 3.41376
                CHANNELS 3 Zrotation Xrotation Yrotation
                JOINT rMid2
                {
                  OFFSET -3.10165 -0.590103 1.0647
                  CHANNELS 3 Zrotation Xrotation Yrotation
                  End Site
                  {
                    OFFSET -2.48547 -0.328903 0.83742
                  }
                }
              }
              JOINT rRing1
              {
                OFFSET -8.82822 0.546677 1.51678
                CHANNELS 3 Zrotation Xrotation Yrotation
                JOINT rRing2
                {
                  OFFSET -2.60934 -0.819778 -0.0198488
                  CHANNELS 3 Zrotation Xrotation Yrotation
                  End Site
                  {
                    OFFSET -2.33842 -0.294052 0.168128
                  }
                }
              }
              JOINT rPinky1
              {
                OFFSET -8.27202 -0.0477905 -0.4584
                CHANNELS 3 Zrotation Xrotation Yrotation
                JOINT rPinky2
                {
                  OFFSET -1.82734 -0.647385 -0.700984
                  CHANNELS 3 Zrotation Xrotation Yrotation
                  End Site
                  {
                    OFFSET -1.69225 -0.51767 -0.607171
                  }
                }
              }
            }
          }
        }
      }
      JOINT lCollar
      {
        OFFSET 2.68224 19.2634 -4.8768
        CHANNELS 3 Zrotation Xrotation Yrotation
        JOINT lShldr
        {
          OFFSET 8.77824 -1.95073 1.46304
          CHANNELS 3 Zrotation Xrotation Yrotation
          JOINT lForeArm
          {
            OFFSET 28.1742 -1.7115 0.48768
            CHANNELS 3 Zrotation Xrotation Yrotation
            JOINT lHand
            {
              OFFSET 22.5879 0.773209 7.07136
              CHANNELS 3 Zrotation Xrotation Yrotation
              JOINT lThumb1
              {
                OFFSET 1.2192 -0.487915 3.41376
                CHANNELS 3 Zrotation Xrotation Yrotation
                JOINT lThumb2
                {
                  OFFSET 3.37035 -0.52449 3.41376
                  CHANNELS 3 Zrotation Xrotation Yrotation
                  End Site
                  {
                    OFFSET 1.78271 -1.18214 1.43049
                  }
                }
              }
              JOINT lIndex1
              {
                OFFSET 7.75947 0.938293 5.60832
                CHANNELS 3 Zrotation Xrotation Yrotation
                JOINT lIndex2
                {
                  OFFSET 2.54057 -0.884171 1.56538
                  CHANNELS 3 Zrotation Xrotation Yrotation
                  End Site
                  {
                    OFFSET 1.62519 -0.234802 1.16502
                  }
                }
              }
              JOINT lMid1
              {
                OFFSET 8.24714 1.18213 3.41376
                CHANNELS 3 Zrotation Xrotation Yrotation
                JOINT lMid2
                {
                  OFFSET 3.10165 -0.590103 1.0647
                  CHANNELS 3 Zrotation Xrotation Yrotation
                  End Site
                  {
                    OFFSET 2.48547 -0.328903 0.83742
                  }
                }
              }
              JOINT lRing1
              {
                OFFSET 8.82822 0.546677 1.51678
                CHANNELS 3 Zrotation Xrotation Yrotation
                JOINT lRing2
                {
                  OFFSET 2.60934 -0.819778 -0.0198488
                  CHANNELS 3 Zrotation Xrotation Yrotation
                  End Site
                  {
                    OFFSET 2.33842 -0.294052 0.168128
                  }
                }
              }
              JOINT lPinky1
              {
                OFFSET 8.27202 -0.0477905 -0.4584
                CHANNELS 3 Zrotation Xrotation Yrotation
                JOINT lPinky2
                {
                  OFFSET 1.82734 -0.647385 -0.700984
                  CHANNELS 3 Zrotation Xrotation Yrotation
                  End Site
                  {
                    OFFSET 1.69225 -0.51767 -0.607171
                  }
                }
              }
            }
          }
        }
      }
    }
  }
  JOINT rButtock
  {
    OFFSET -8.77824 4.35084 1.2192
    CHANNELS 3 Zrotation Xrotation Yrotation
    JOINT rThigh
    {
      OFFSET 0 -1.70687 -2.19456
      CHANNELS 3 Zrotation Xrotation Yrotation
      JOINT rShin
      {
        OFFSET 0 -36.8199 0.73152
        CHANNELS 3 Zrotation Xrotation Yrotation
        JOINT rFoot
        {
          OFFSET 0.73152 -45.1104 -5.12064
          CHANNELS 3 Zrotation Xrotation Yrotation
          End Site
          {
            OFFSET -1.1221 -3.69964 12.103
          }
        }
      }
    }
  }
  JOINT lButtock
  {
    OFFSET 8.77824 4.35084 1.2192
    CHANNELS 3 Zrotation Xrotation Yrotation
    JOINT lThigh
    {
      OFFSET 0 -1.70687 -2.19456
      CHANNELS 3 Zrotation Xrotation Yrotation
      JOINT lShin
      {
        OFFSET 0 -36.8199 0.73152
        CHANNELS 3 Zrotation Xrotation Yrotation
        JOINT lFoot
        {
          OFFSET -0.73152 -45.1104 -5.12064
          CHANNELS 3 Zrotation Xrotation Yrotation
          End Site
          {
            OFFSET 1.1221 -3.69964 12.103
          }
        }
      }
    }
  }
}
MOTION
Frames:	4
Frame Time:	0.03333
-85.31614307830762 60.93150969884762 -43.981203638904546 0.563631534576416 5.218046188354492 4.019418239593506 -3.8004965782165527 9.752503395080566 3.6569743156433105 2.2068471908569336 -6.609414577484131 -0.2578064799308777 -5.445510387420654 11.53533935546875 -4.306517124176025 3.6474356651306152 -22.97968292236328 -5.813293933868408 0.9592726230621338 -0.22251704335212708 -3.132327079772949 1.121680498123169 -0.6887111663818359 -2.3041388988494873 0.564271867275238 0.7964035272598267 -3.6246519088745117 3.0534110069274902 27.412626266479492 67.95929718017578 -23.278303146362305 -26.18962860107422 56.04292678833008 -3.0382580757141113 -11.633858680725098 -6.1090874671936035 -0.4342389404773712 0.15170659124851227 -4.785064220428467 1.1497474908828735 0.04115329310297966 -2.9134416580200195 -1.045935034751892 -0.15672269463539124 -4.4984283447265625 8.607874870300293 6.137256145477295 -3.5236854553222656 -0.7356085181236267 -0.1861884593963623 -3.637599229812622 3.092561721801758 0.4406959116458893 -3.581472396850586 -0.5460129380226135 0.39094623923301697 -2.3525872230529785 9.921464920043945 0.7344508171081543 -4.119282245635986 -0.8775160312652588 -0.040319059044122696 -3.7347922325134277 2.2848856449127197 0.3234444856643677 -3.0635082721710205 -0.24754536151885986 -0.634087860584259 -3.7673981189727783 -32.04859924316406 57.60148239135742 -63.82581329345703 22.79754066467285 -23.352012634277344 -64.99160766601562 2.1375679969787598 -10.897773742675781 -2.7257909774780273 1.5482629537582397 0.5419452786445618 -4.919917583465576 -0.4534948468208313 -1.723963737487793 -4.008603096008301 0.5499347448348999 -0.2549813985824585 -3.6201717853546143 -7.859468936920166 5.726765155792236 -3.8296921253204346 -0.5442011952400208 -0.032008662819862366 -3.086019992828369 -3.51129412651062 0.5306676030158997 -3.2426562309265137 1.5354325771331787 0.10316947102546692 -2.9192519187927246 -10.345498085021973 0.7978553175926208 -3.875422716140747 -0.13410288095474243 -0.17951011657714844 -3.651103973388672 -2.7139570713043213 -1.3146847486495972 -3.6421778202056885 -0.3610585927963257 -1.1442756652832031 -2.2954154014587402 -5.11386775970459 -38.325927734375 -10.8355073928833 1.8600996732711792 57.80470275878906 -4.297871112823486 -4.564804553985596 -14.09876823425293 -18.65145492553711 -1.051791787147522 -0.12705200910568237 -2.691239595413208 3.326791286468506 -37.288570404052734 -0.09084691852331161 -0.6543749570846558 66.20503234863281 -3.1021463871002197 4.966065406799316 -16.308752059936523 9.476967811584473
-86.77593987954229 60.70610662604803 -45.539902539816346 0.14316485822200775 5.873479843139648 4.07124137878418 -3.3214104175567627 9.546055793762207 3.2469027042388916 2.382533311843872 -6.626613140106201 -0.45478296279907227 -5.561765670776367 11.780173301696777 -4.486852169036865 3.709575891494751 -23.233774185180664 -6.26663875579834 0.9592950940132141 -0.2116415947675705 -3.145179033279419 1.0392497777938843 -0.6514498591423035 -2.450549840927124 0.5423548221588135 0.7288813591003418 -3.679612159729004 3.2213339805603027 27.458593368530273 67.85520935058594 -23.60626220703125 -26.964393615722656 56.749046325683594 -3.0176496505737305 -11.903915405273438 -6.32681941986084 -0.5104748010635376 0.23129457235336304 -4.986546039581299 1.1974151134490967 0.07625272125005722 -3.0662665367126465 -1.038275957107544 -0.1444830298423767 -4.638714790344238 8.571090698242188 6.142904281616211 -3.636019468307495 -0.7686237692832947 -0.196379616856575 -3.821380615234375 3.0999395847320557 0.39890140295028687 -3.628406524658203 -0.558512806892395 0.47339630126953125 -2.472801446914673 9.919560432434082 0.7594793438911438 -4.279686450958252 -0.8367654085159302 -0.13843567669391632 -3.803250789642334 2.254617691040039 0.2918446660041809 -3.1509950160980225 -0.22881117463111877 -0.6224492788314819 -3.8199734687805176 -28.89322280883789 57.792579650878906 -67.50284576416016 22.848474502563477 -23.28450584411621 -65.21577453613281 2.0959348678588867 -10.600556373596191 -2.9541544914245605 1.4666802883148193 0.41897526383399963 -4.983860969543457 -0.4583975076675415 -1.7451865673065186 -4.108801364898682 0.5975054502487183 -0.35962653160095215 -3.7150814533233643 -7.862333297729492 5.733720302581787 -4.012911319732666 -0.536152720451355 -0.038734953850507736 -3.2168805599212646 -3.5916919708251953 0.5406396389007568 -3.359621524810791 1.5232646465301514 0.20867623388767242 -3.039289712905884 -10.227836608886719 0.9112449288368225 -3.9404232501983643 -0.24357686936855316 -0.18227334320545197 -3.744844675064087 -2.639094829559326 -1.2246335744857788 -3.6754069328308105 -0.38225752115249634 -1.1072787046432495 -2.493356704711914 -5.3998236656188965 -37.96981430053711 -11.344918251037598 1.8638771772384644 57.17615509033203 -4.3069963455200195 -4.443086624145508 -14.087650299072266 -18.70136260986328 -0.979403555393219 -0.14251577854156494 -2.727090835571289 4.312813758850098 -38.503684997558594 0.6435788869857788 -0.7371957898139954 67.2259750366211 -3.152226686477661 5.209966659545898 -16.36328887939453 9.44542407989502
-88.19747268038608 61.39784086443024 -46.99953456273729 0.7287819385528564 6.143947601318359 5.59164571762085 -4.362241268157959 9.508081436157227 4.192727088928223 2.8736724853515625 -6.798657417297363 0.860772967338562 -5.773555278778076 12.250896453857422 -4.009305000305176 4.036901473999023 -23.737659454345703 -6.370404243469238 0.7562240958213806 -0.18642953038215637 -1.8555316925048828 0.9090078473091125 -0.6097798943519592 -1.4053701162338257 0.663142204284668 0.5637122392654419 -2.39001202583313 2.789193630218506 26.224287033081055 69.00316619873047 -23.675800323486328 -27.156707763671875 58.961708068847656 -2.762158155441284 -10.93854808807373 -5.005256175994873 -0.49267280101776123 0.2605208158493042 -3.5104572772979736 1.177423357963562 0.11126469075679779 -1.8627747297286987 -0.9123138785362244 -0.04818182438611984 -3.185920476913452 8.453978538513184 6.058997631072998 -2.2600653171539307 -0.7885919809341431 -0.3265950381755829 -2.587818145751953 3.220597982406616 0.47279804944992065 -2.311286449432373 -0.528128981590271 0.5101652145385742 -1.0933622121810913 9.824350357055664 0.7776111960411072 -2.987419366836548 -0.7478688359260559 -0.09993943572044373 -2.4081270694732666 2.070378303527832 0.2111976444721222 -1.8567112684249878 -0.13499721884727478 -0.7542927265167236 -2.530411720275879 -28.850812911987305 60.13836669921875 -64.75007629394531 22.58622932434082 -25.075021743774414 -64.94510650634766 2.114727735519409 -13.34423828125 -1.3127459287643433 1.3525302410125732 0.27447593212127686 -3.6239283084869385 -0.44341161847114563 -1.7151738405227661 -2.86566162109375 0.6496265530586243 -0.5698678493499756 -2.421246290206909 -7.8403544425964355 5.703428268432617 -2.862825393676758 -0.4981174170970917 -0.18070782721042633 -2.0961577892303467 -3.786898612976074 0.4181445240974426 -2.1277191638946533 1.4411429166793823 0.07389675080776215 -1.640078067779541 -10.07630729675293 1.039788007736206 -2.701322078704834 -0.3635910749435425 -0.18385003507137299 -2.2904422283172607 -2.5428030490875244 -1.2545764446258545 -2.3565213680267334 -0.18947255611419678 -1.076250433921814 -1.354501724243164 -5.793516159057617 -39.894508361816406 -10.23630428314209 1.8975387811660767 58.088462829589844 -3.040792465209961 -3.775420665740967 -13.070188522338867 -16.112730026245117 -0.9157962799072266 -0.06449989229440689 -1.499935269355774 1.9895541667938232 -36.31528091430664 0.8951895833015442 -1.0634055137634277 65.24906921386719 -1.7437784671783447 6.140015602111816 -16.906970977783203 12.259028434753418
-89.46581095489223 61.96314830127552 -48.44078366511567 1.5240105390548706 5.932797908782959 5.898083686828613 -5.3733978271484375 9.440145492553711 4.298710823059082 3.13572359085083 -6.819199562072754 1.1158498525619507 -5.978573322296143 12.393567085266113 -4.7090229988098145 4.232751369476318 -23.73517417907715 -7.2947282791137695 0.6016526818275452 -0.22146311402320862 -1.8011165857315063 0.9239238500595093 -0.6465206742286682 -1.357488989830017 0.6905156373977661 0.5635822415351868 -2.3679397106170654 0.6371043920516968 24.743209838867188 69.9020004272461 -23.712556838989258 -27.33684730529785 59.73041915893555 -2.5310373306274414 -9.141584396362305 -4.674414157867432 -0.43973326683044434 0.18368308246135712 -3.295905828475952 1.0571954250335693 -0.025861799716949463 -1.7656846046447754 -0.7905316948890686 0.10152603685855865 -2.9509613513946533 8.453489303588867 6.033032417297363 -2.101200580596924 -0.749430775642395 -0.4813564419746399 -2.3435306549072266 3.3747599124908447 0.5141932368278503 -2.245591640472412 -0.5600755214691162 0.47933802008628845 -0.8456555008888245 9.820987701416016 0.7446639537811279 -2.6698765754699707 -0.6760832667350769 -0.041124846786260605 -2.2632856369018555 1.982620358467102 0.3251917064189911 -1.6157304048538208 -0.0966479703783989 -0.8148596882820129 -2.478278160095215 -31.15933609008789 62.74260711669922 -60.45833969116211 22.91779327392578 -26.61675262451172 -66.42925262451172 2.201155424118042 -16.551830291748047 -0.6563430428504944 1.3230013847351074 0.24957329034805298 -3.4914636611938477 -0.5423622131347656 -1.6859965324401855 -2.7168819904327393 0.6129388809204102 -0.6586571335792542 -2.246382474899292 -7.819441795349121 5.685649871826172 -2.6459875106811523 -0.4939424991607666 -0.1898522675037384 -2.1196184158325195 -3.8511593341827393 0.4338397979736328 -2.0113983154296875 1.375287652015686 -0.08298741281032562 -1.385885238647461 -10.038763999938965 1.01943838596344 -2.697171211242676 -0.34948694705963135 -0.19568802416324615 -1.9919788837432861 -2.4855871200561523 -1.3778822422027588 -2.3198609352111816 -0.0785280168056488 -1.1733789443969727 -1.2211912870407104 -6.030610084533691 -41.67918395996094 -10.097989082336426 1.7079989910125732 59.05756759643555 -2.867053270339966 -3.4237942695617676 -12.046239852905273 -14.975279808044434 -0.905252993106842 -0.039601754397153854 -1.4958356618881226 -0.3887768089771271 -33.24087905883789 -0.17491745948791504 -0.9364721775054932 62.79535675048828 -1.7631611824035645 6.627671241760254 -17.393892288208008 13.667024612426758
